<?xml version="1.0" encoding="utf-8"?>
<!-- Generator: Adobe Illustrator 22.1.0, SVG Export Plug-In . SVG Version: 6.00 Build 0)  -->
<svg version="1.1" id="Layer_1" xmlns="http://www.w3.org/2000/svg" xmlns:xlink="http://www.w3.org/1999/xlink" x="0px" y="0px"
	 viewBox="0 0 5000 5000" style="enable-background:new 0 0 5000 5000;" xml:space="preserve">
<style type="text/css">
	.st0{fill:url(#SVGID_1_);}
	.st1{fill:#FFFFFF;}
</style>
<g>
	<linearGradient id="SVGID_1_" gradientUnits="userSpaceOnUse" x1="877.7236" y1="4834.3804" x2="4122.2764" y2="165.6197">
		<stop  offset="0" style="stop-color:#0063E0"/>
		<stop  offset="1" style="stop-color:#16A7FC"/>
	</linearGradient>
	<path class="st0" d="M3374.3,5000H1625.7C727.9,5000,0,4272.1,0,3374.3V1625.7C0,727.9,727.9,0,1625.7,0h1748.5
		C4272.1,0,5000,727.9,5000,1625.7v1748.5C5000,4272.1,4272.1,5000,3374.3,5000z"/>
	<g>
		<path class="st1" d="M3037.4,5000V2887.6h549.3l82.2-637.8h-631.6v-407.2c0-184.7,51.3-310.5,316.1-310.5l337.7-0.2V961.5
			c-58.4-7.8-258.9-25.1-492.1-25.1c-486.9,0-820.3,297.2-820.3,843.1v470.3H1828v637.8h550.7V5000H3037.4z"/>
	</g>
</g>
</svg>
