<?xml version="1.0" encoding="utf-8"?>
<!-- Generator: Adobe Illustrator 22.1.0, SVG Export Plug-In . SVG Version: 6.00 Build 0)  -->
<svg version="1.1" id="Layer_1" xmlns="http://www.w3.org/2000/svg" xmlns:xlink="http://www.w3.org/1999/xlink" x="0px" y="0px"
	 viewBox="0 0 5000 5000" style="enable-background:new 0 0 5000 5000;" xml:space="preserve">
<style type="text/css">
	.st0{fill:url(#SVGID_1_);}
	.st1{fill:#FFFFFF;}
</style>
<linearGradient id="SVGID_1_" gradientUnits="userSpaceOnUse" x1="5024" y1="-24" x2="7.3621" y2="4992.6377">
	<stop  offset="0" style="stop-color:#D6B038"/>
	<stop  offset="6.021906e-02" style="stop-color:#D6AB39"/>
	<stop  offset="0.1299" style="stop-color:#D59D3A"/>
	<stop  offset="0.2043" style="stop-color:#D3863D"/>
	<stop  offset="0.282" style="stop-color:#D16540"/>
	<stop  offset="0.3614" style="stop-color:#CE3C45"/>
	<stop  offset="0.3973" style="stop-color:#CC2747"/>
	<stop  offset="0.4526" style="stop-color:#CA284B"/>
	<stop  offset="0.5075" style="stop-color:#C52B57"/>
	<stop  offset="0.5624" style="stop-color:#BB306B"/>
	<stop  offset="0.6169" style="stop-color:#AF3787"/>
	<stop  offset="0.6568" style="stop-color:#A33EA0"/>
	<stop  offset="0.7136" style="stop-color:#9C3EA0"/>
	<stop  offset="0.7964" style="stop-color:#893E9F"/>
	<stop  offset="0.8951" style="stop-color:#693F9F"/>
	<stop  offset="1" style="stop-color:#3F3F9E"/>
</linearGradient>
<rect class="st0" width="5000" height="5000"/>
<g>
	<path class="st1" d="M3143.5,977.7h-1287c-485.3,0-878.7,393.4-878.7,878.8v1287c0,485.4,393.4,878.8,878.7,878.8h1287
		c485.3,0,878.8-393.4,878.8-878.8v-1287C4022.3,1371.2,3628.8,977.7,3143.5,977.7 M3741.9,3166.1c0,322.2-261.2,583.3-583.3,583.3
		H1841.4c-322.1,0-583.3-261.1-583.3-583.3V1849c0-322.2,261.2-583.3,583.3-583.3h1317.1c322.2,0,583.3,261.1,583.3,583.3V3166.1z"
		/>
	<path class="st1" d="M2500,1717.6c-436.3,0-790,353.6-790,790c0,436.3,353.7,790,790,790c436.3,0,790-353.7,790-790
		C3290,2071.3,2936.3,1717.6,2500,1717.6 M2500,3019.7c-282.8,0-512.1-229.3-512.1-512.1c0-282.8,229.3-512,512.1-512
		c282.8,0,512.1,229.2,512.1,512C3012.1,2790.4,2782.8,3019.7,2500,3019.7"/>
	<path class="st1" d="M3316.3,1503.5c-101.6,0-184,82.4-184,184c0,101.6,82.4,184,184,184c101.6,0,184.1-82.4,184.1-184
		C3500.3,1585.9,3417.9,1503.5,3316.3,1503.5"/>
</g>
</svg>
