<?xml version="1.0" encoding="utf-8"?>
<!-- Generator: Adobe Illustrator 22.1.0, SVG Export Plug-In . SVG Version: 6.00 Build 0)  -->
<svg version="1.1" id="Layer_1" xmlns="http://www.w3.org/2000/svg" xmlns:xlink="http://www.w3.org/1999/xlink" x="0px" y="0px"
	 viewBox="0 0 5000 5000" style="enable-background:new 0 0 5000 5000;" xml:space="preserve">
<style type="text/css">
	.st0{fill:#FFFFFF;}
	.st1{fill:#E60023;}
</style>
<g id="g58" transform="translate(245.0344,124.9999)">
	<path id="path60" class="st0" d="M4326.7,2375c0,1144.2-927.6,2071.8-2071.7,2071.8S183.2,3519.2,183.2,2375
		c0-1144.2,927.6-2071.7,2071.7-2071.7S4326.7,1230.8,4326.7,2375"/>
</g>
<g id="g62" transform="translate(123.0422,246.9921)">
	<path id="path64" class="st1" d="M2376.9,181.3c-1144.2,0-2071.7,927.6-2071.7,2071.7c0,877.7,546.1,1628,1316.8,1929.9
		c-18.1-163.9-34.5-416,7.2-595c37.7-161.7,242.9-1029.8,242.9-1029.8s-62-124.1-62-307.6c0-288.1,167-503.1,374.9-503.1
		c176.8,0,262.1,132.7,262.1,291.8c0,177.8-113.2,443.5-171.6,689.8c-48.8,206.2,103.4,374.4,306.8,374.4
		c368.2,0,651.3-388.3,651.3-948.7c0-496-356.4-842.9-865.4-842.9c-589.5,0-935.5,442.1-935.5,899.1c0,178.1,68.6,369,154.2,472.8
		c16.9,20.5,19.4,38.5,14.4,59.4c-15.7,65.4-50.7,206.2-57.5,235c-9,37.9-30,46-69.3,27.7c-258.7-120.4-420.5-498.7-420.5-802.6
		c0-653.5,474.8-1253.7,1368.9-1253.7c718.7,0,1277.2,512.1,1277.2,1196.5c0,714-450.2,1288.6-1075.1,1288.6
		c-209.9,0-407.3-109.1-474.9-237.9c0,0-103.9,395.6-129.1,492.5c-46.8,179.9-173,405.5-257.5,543.1c193.8,60,399.8,92.4,613.4,92.4
		c1144.2,0,2071.8-927.6,2071.8-2071.7C4448.7,1108.8,3521.2,181.3,2376.9,181.3"/>
</g>
</svg>
